<svg xmlns="http://www.w3.org/2000/svg" viewBox="0 0 12.54 12"><defs><style>.cls-1{fill:#ffc54c;}</style></defs><g id="Layer_2" data-name="Layer 2"><g id="Layer_1-2" data-name="Layer 1"><path id="Path_254" data-name="Path 254" class="cls-1" d="M6.94.42,8.3,3.16a.74.74,0,0,0,.56.41l3,.44a.76.76,0,0,1,.64.86.81.81,0,0,1-.22.43L10.12,7.43a.77.77,0,0,0-.22.67l.52,3a.75.75,0,0,1-.61.87.82.82,0,0,1-.49-.07l-2.7-1.43a.78.78,0,0,0-.7,0L3.21,11.92a.76.76,0,0,1-1-.32.73.73,0,0,1-.07-.48l.51-3a.74.74,0,0,0-.21-.67L.23,5.3a.76.76,0,0,1,0-1.07A.8.8,0,0,1,.65,4l3-.44a.74.74,0,0,0,.57-.41L5.59.42a.75.75,0,0,1,1-.34A.7.7,0,0,1,6.94.42Z"/></g></g></svg>