<?xml version="1.0" encoding="utf-8"?>
<!-- Generator: Adobe Illustrator 22.1.0, SVG Export Plug-In . SVG Version: 6.00 Build 0)  -->
<svg version="1.1" id="Layer_1" xmlns="http://www.w3.org/2000/svg" xmlns:xlink="http://www.w3.org/1999/xlink" x="0px" y="0px"
	 viewBox="0 0 197.5 45.7" style="enable-background:new 0 0 197.5 45.7;" xml:space="preserve">
<style type="text/css">
	.st0{fill-rule:evenodd;clip-rule:evenodd;fill:#1F3C71;}
</style>
<g>
	<path class="st0" d="M180.7,38.1l-8.6-14.6l-5.1,5.2v9.4h-6.3v-31h6.3v13.8l12.7-13.8h8.5l-11.7,12.1l12.3,19H180.7z M193.4,0
		h-41.2v41.1c0,2.3,1.8,4,4.1,4h37.2c2.2,0,4.1-1.8,4.1-4V4C197.5,1.8,195.7,0,193.4,0L193.4,0z"/>
	<path class="st0" d="M77.5,14.1c-0.7-0.7-1.7-1.2-2.9-1.5c-0.9-0.2-2.6-0.3-5.1-0.3h-2.8v20.6h4.7c1.7,0,3-0.1,3.8-0.3
		c1-0.3,1.9-0.7,2.5-1.3c0.7-0.6,1.2-1.6,1.6-3c0.4-1.4,0.7-3.3,0.7-5.7c0-2.4-0.2-4.2-0.7-5.5C78.9,15.8,78.3,14.8,77.5,14.1
		L77.5,14.1z"/>
	<path class="st0" d="M85.4,29.5c-0.8,2.3-1.9,4.1-3.3,5.5c-1.1,1.1-2.5,1.9-4.4,2.5c-1.4,0.4-3.2,0.7-5.5,0.7H60.4v-31h11.4
		c2.6,0,4.6,0.2,5.9,0.6c1.8,0.5,3.4,1.5,4.7,2.9c1.3,1.4,2.3,3,3,5c0.7,2,1,4.4,1,7.3C86.4,25.5,86.1,27.6,85.4,29.5L85.4,29.5z
		 M92,0H50.7v41.2c0,2.2,1.8,4,4,4H92c2.2,0,4-1.8,4-4V4C96,1.8,94.2,0,92,0L92,0z"/>
	<polygon class="st0" points="18.2,25.8 26.7,25.8 22.4,14.3 	"/>
	<path class="st0" d="M31.5,38.1L28.8,31H16.3l-2.6,7.1H7.1l12.1-31h6.7l12.5,31H31.5z M41.3,0H0v41.2c0,2.2,1.8,4,4,4h37.2
		c2.2,0,4-1.8,4-4V4C45.3,1.8,43.5,0,41.3,0L41.3,0z"/>
	<polygon class="st0" points="119.7,25.8 128.2,25.8 123.9,14.3 	"/>
	<path class="st0" d="M132.9,38.1l-2.7-7.1h-12.5l-2.6,7.1h-6.7l12.1-31h6.7l12.5,31H132.9z M142.8,0h-41.3v41.2c0,2.2,1.8,4,4,4
		h37.3c2.2,0,4-1.8,4-4V4C146.8,1.8,145,0,142.8,0L142.8,0z"/>
</g>
</svg>
