<?xml version="1.0" encoding="utf-8"?>
<!-- Generator: Adobe Illustrator 22.1.0, SVG Export Plug-In . SVG Version: 6.00 Build 0)  -->
<svg version="1.1" xmlns="http://www.w3.org/2000/svg" xmlns:xlink="http://www.w3.org/1999/xlink" x="0px" y="0px"
	 viewBox="0 0 197.5 45.7" style="enable-background:new 0 0 197.5 45.7;" xml:space="preserve">
<style type="text/css">
	.st0{fill-rule:evenodd;clip-rule:evenodd;fill:#FFFFFF;}
	.st1{display:none;}
	.st2{display:inline;fill-rule:evenodd;clip-rule:evenodd;fill:#1F3C71;}
	.st3{fill-rule:evenodd;clip-rule:evenodd;fill:#A5CE39;}
	.st4{fill:#939390;}
</style>
<g id="Layer_2">
	<rect x="5.6" y="9.1" class="st0" width="33.8" height="27.5"/>
	<rect x="66.6" y="10.9" class="st0" width="15.5" height="27"/>
	<rect x="112.2" y="10.9" class="st0" width="24.3" height="27"/>
	<rect x="167.6" y="10.9" class="st0" width="16.5" height="30"/>
</g>
<g id="Layer_1">
	<g class="st1">
		<path class="st2" d="M180.7,38.1l-8.6-14.6l-5.1,5.2v9.4h-6.3v-31h6.3v13.8l12.7-13.8h8.5l-11.7,12.1l12.3,19H180.7z M193.4,0
			h-41.2v41.1c0,2.3,1.8,4,4.1,4h37.2c2.2,0,4.1-1.8,4.1-4V4C197.5,1.8,195.7,0,193.4,0L193.4,0z"/>
		<path class="st2" d="M77.5,14.1c-0.7-0.7-1.7-1.2-2.9-1.5c-0.9-0.2-2.6-0.3-5.1-0.3h-2.8v20.6h4.7c1.7,0,3-0.1,3.8-0.3
			c1-0.3,1.9-0.7,2.5-1.3c0.7-0.6,1.2-1.6,1.6-3c0.4-1.4,0.7-3.3,0.7-5.7c0-2.4-0.2-4.2-0.7-5.5C78.9,15.8,78.3,14.8,77.5,14.1
			L77.5,14.1z"/>
		<path class="st2" d="M85.4,29.5c-0.8,2.3-1.9,4.1-3.3,5.5c-1.1,1.1-2.5,1.9-4.4,2.5c-1.4,0.4-3.2,0.7-5.5,0.7H60.4v-31h11.4
			c2.6,0,4.6,0.2,5.9,0.6c1.8,0.5,3.4,1.5,4.7,2.9c1.3,1.4,2.3,3,3,5c0.7,2,1,4.4,1,7.3C86.4,25.5,86.1,27.6,85.4,29.5L85.4,29.5z
			 M92,0H50.7v41.2c0,2.2,1.8,4,4,4H92c2.2,0,4-1.8,4-4V4C96,1.8,94.2,0,92,0L92,0z"/>
		<polygon class="st2" points="18.2,25.8 26.7,25.8 22.4,14.3 		"/>
		<path class="st2" d="M31.5,38.1L28.8,31H16.3l-2.6,7.1H7.1l12.1-31h6.7l12.5,31H31.5z M41.3,0H0v41.2c0,2.2,1.8,4,4,4h37.2
			c2.2,0,4-1.8,4-4V4C45.3,1.8,43.5,0,41.3,0L41.3,0z"/>
		<polygon class="st2" points="119.7,25.8 128.2,25.8 123.9,14.3 		"/>
		<path class="st2" d="M132.9,38.1l-2.7-7.1h-12.5l-2.6,7.1h-6.7l12.1-31h6.7l12.5,31H132.9z M142.8,0h-41.3v41.2c0,2.2,1.8,4,4,4
			h37.3c2.2,0,4-1.8,4-4V4C146.8,1.8,145,0,142.8,0L142.8,0z"/>
	</g>
	<g>
		<path class="st3" d="M130.1,30h-12.7l1.8-2.6h7.9v-6.1c0-2.1-1.1-3.1-3.3-3.1c-1.8,0-3.3,0.9-4.3,2.8v-3.4
			c1.5-1.3,2.9-1.9,4.3-1.9c1.9,0,3.4,0.5,4.6,1.5c1.2,1,1.8,2.3,1.8,4V30z M142.2,0.4h-40.9v40.8c0,2.2,1.8,3.9,3.9,3.9h36.9
			c2.2,0,3.9-1.8,3.9-3.9V4.4C146.2,2.2,144.4,0.4,142.2,0.4L142.2,0.4z"/>
		<path class="st3" d="M15.3,33c-0.9,0-1.6-0.1-2.3-0.4c-0.7-0.3-1.3-0.6-1.8-1.1s-0.9-1.1-1.2-1.7c-0.3-0.7-0.4-1.4-0.4-2.3v-3.2
			l3-3l0,6c0,2.1,1.1,3.1,3.2,3.1h16.8c0-0.8,0-1.5,0-2.1c0-0.6-0.1-1.1-0.1-1.4c-0.2-1.3-0.7-2.4-1.5-3.1c-1.1-1-2.5-1.5-4.3-1.5
			c-2.3,0-4.1,0.8-5.6,2.5l-2.1-1.9l10-10.3h3.9l-6.9,7.2c0.5-0.1,0.9-0.1,1.4-0.1c2.2,0,4.1,0.7,5.6,2c1.5,1.3,2.4,3.1,2.7,5.3
			c0.1,0.5,0.1,2.5,0.1,6.1H15.3z M41,0.4H0.1v40.7c0,2.2,1.8,4,4,4H41c2.2,0,4-1.8,4-4V4.4C44.9,2.2,43.2,0.4,41,0.4L41,0.4z"/>
		<path class="st3" d="M175.7,33.1h-3.1V13.4l3.1-0.9V33.1z M192.5,0.4h-40.8v40.7c0,2.2,1.8,4,4,4h36.8c2.2,0,4-1.8,4-4V4.4
			C196.6,2.2,194.8,0.4,192.5,0.4L192.5,0.4z"/>
		<path class="st3" d="M75.5,33.1h-3.1V13.4l3.1-0.9V33.1z M92.5,0.4H51.6v40.8c0,2.2,1.8,3.9,4,3.9h36.9c2.2,0,3.9-1.8,3.9-3.9V4.4
			C96.4,2.2,94.6,0.4,92.5,0.4L92.5,0.4z"/>
		<path class="st4" d="M154-6.1 M152.6-6.1"/>
	</g>
</g>
</svg>
